{
  "accessors": [
    {
      "bufferView": 2,
      "componentType": 5126,
      "count": 4221,
      "max": [
        186.67945861816406,
        420.13165283203125,
        170.39520263671875
      ],
      "min": [
        -146.37391662597656,
        -45.02204132080078,
        -147.7462158203125
      ],
      "type": "VEC3"
    },
    {
      "bufferView": 2,
      "byteOffset": 50652,
      "componentType": 5126,
      "count": 4221,
      "max": [
        0.9991760849952698,
        0.997592031955719,
        0.9995347261428833
      ],
      "min": [
        -0.9989451766014099,
        -0.9988912343978882,
        -0.9999508261680603
      ],
      "type": "VEC3"
    },
    {
      "bufferView": 3,
      "componentType": 5126,
      "count": 4221,
      "max": [
        0.9998288750648499,
        0.9996200799942017,
        0.9999967217445374,
        1.0
      ],
      "min": [
        -0.999455451965332,
        -0.9988473653793335,
        -0.999599277973175,
        -1.0
      ],
      "type": "VEC4"
    },
    {
      "bufferView": 1,
      "componentType": 5126,
      "count": 4221,
      "max": [
        0.9960496425628662,
        0.9960496425628662
      ],
      "min": [
        0.003950374200940132,
        0.022128939628601074
      ],
      "type": "VEC2"
    },
    {
      "bufferView": 1,
      "byteOffset": 33768,
      "componentType": 5126,
      "count": 4221,
      "max": [
        0.9960496425628662,
        0.9960496425628662
      ],
      "min": [
        0.003950374200940132,
        0.022128939628601074
      ],
      "type": "VEC2"
    },
    {
      "bufferView": 0,
      "componentType": 5125,
      "count": 18414,
      "type": "SCALAR"
    },
    {
      "bufferView": 2,
      "byteOffset": 101304,
      "componentType": 5126,
      "count": 176,
      "max": [
        245.21090698242188,
        154.12469482421875,
        219.8240966796875
      ],
      "min": [
        -245.21090698242188,
        -154.12469482421875,
        -219.8240966796875
      ],
      "type": "VEC3"
    },
    {
      "bufferView": 2,
      "byteOffset": 103416,
      "componentType": 5126,
      "count": 176,
      "max": [
        0.8168951869010925,
        0.9997610449790955,
        0.9826767444610596
      ],
      "min": [
        -0.9921526908874512,
        -0.5914615988731384,
        -0.8046669960021973
      ],
      "type": "VEC3"
    },
    {
      "bufferView": 3,
      "byteOffset": 67536,
      "componentType": 5126,
      "count": 176,
      "max": [
        0.9945154190063477,
        0.9651041626930237,
        0.9365522861480713,
        1.0
      ],
      "min": [
        -0.9737732410430908,
        -0.646005392074585,
        -0.996478796005249,
        1.0
      ],
      "type": "VEC4"
    },
    {
      "bufferView": 1,
      "byteOffset": 67536,
      "componentType": 5126,
      "count": 176,
      "max": [
        0.9554619789123535,
        0.9728550910949707
      ],
      "min": [
        0.005460547283291817,
        0.0156172513961792
      ],
      "type": "VEC2"
    },
    {
      "bufferView": 1,
      "byteOffset": 68944,
      "componentType": 5126,
      "count": 176,
      "max": [
        0.9554619789123535,
        0.9728550910949707
      ],
      "min": [
        0.005460547283291817,
        0.0156172513961792
      ],
      "type": "VEC2"
    },
    {
      "bufferView": 0,
      "byteOffset": 73656,
      "componentType": 5125,
      "count": 528,
      "type": "SCALAR"
    }
  ],
  "asset": {
    "extras": {
      "author": "DJMaesen (https://sketchfab.com/bumstrum)",
      "license": "CC-BY-4.0 (http://creativecommons.org/licenses/by/4.0/)",
      "source": "https://sketchfab.com/3d-models/tree-1d26dcc1af0c4a06a95c459b7ca4cf6f",
      "title": "Tree"
    },
    "generator": "Sketchfab-12.66.0",
    "version": "2.0"
  },
  "bufferViews": [
    {
      "buffer": 0,
      "byteLength": 75768,
      "name": "floatBufferViews",
      "target": 34963
    },
    {
      "buffer": 0,
      "byteLength": 70352,
      "byteOffset": 75768,
      "byteStride": 8,
      "name": "floatBufferViews",
      "target": 34962
    },
    {
      "buffer": 0,
      "byteLength": 105528,
      "byteOffset": 146120,
      "byteStride": 12,
      "name": "floatBufferViews",
      "target": 34962
    },
    {
      "buffer": 0,
      "byteLength": 70352,
      "byteOffset": 251648,
      "byteStride": 16,
      "name": "floatBufferViews",
      "target": 34962
    }
  ],
  "buffers": [
    {
      "byteLength": 322000,
      "uri": "scene.bin"
    }
  ],
  "images": [
    {
      "uri": "textures/tree2_baseColor.png"
    },
    {
      "uri": "textures/tree2_metallicRoughness.png"
    },
    {
      "uri": "textures/tree2_normal.png"
    },
    {
      "uri": "textures/branches_baseColor.png"
    },
    {
      "uri": "textures/branches_normal.png"
    }
  ],
  "materials": [
    {
      "name": "tree2",
      "normalTexture": {
        "index": 2
      },
      "pbrMetallicRoughness": {
        "baseColorTexture": {
          "index": 0
        },
        "metallicFactor": 0.0,
        "metallicRoughnessTexture": {
          "index": 1
        }
      }
    },
    {
      "alphaCutoff": 0.7273246951219512,
      "alphaMode": "MASK",
      "doubleSided": true,
      "name": "branches",
      "normalTexture": {
        "index": 4
      },
      "pbrMetallicRoughness": {
        "baseColorTexture": {
          "index": 3
        },
        "metallicFactor": 0.0,
        "roughnessFactor": 0.3824314024390244
      }
    }
  ],
  "meshes": [
    {
      "name": "tree2_tree2_0",
      "primitives": [
        {
          "attributes": {
            "NORMAL": 1,
            "POSITION": 0,
            "TANGENT": 2,
            "TEXCOORD_0": 3,
            "TEXCOORD_1": 4
          },
          "indices": 5,
          "material": 0,
          "mode": 4
        }
      ]
    },
    {
      "name": "leaves_branches_0",
      "primitives": [
        {
          "attributes": {
            "NORMAL": 7,
            "POSITION": 6,
            "TANGENT": 8,
            "TEXCOORD_0": 9,
            "TEXCOORD_1": 10
          },
          "indices": 11,
          "material": 1,
          "mode": 4
        }
      ]
    }
  ],
  "nodes": [
    {
      "children": [
        1
      ],
      "matrix": [
        1.0,
        0.0,
        0.0,
        0.0,
        0.0,
        2.220446049250313e-16,
        -1.0,
        0.0,
        0.0,
        1.0,
        2.220446049250313e-16,
        0.0,
        0.0,
        0.0,
        0.0,
        1.0
      ],
      "name": "Sketchfab_model"
    },
    {
      "children": [
        2
      ],
      "matrix": [
        1.0,
        0.0,
        0.0,
        0.0,
        0.0,
        0.0,
        1.0,
        0.0,
        0.0,
        -1.0,
        0.0,
        0.0,
        0.0,
        0.0,
        0.0,
        1.0
      ],
      "name": "8c5a4d85d15f4c0c86aef316f804ef65.fbx"
    },
    {
      "children": [
        3
      ],
      "name": "RootNode"
    },
    {
      "children": [
        4,
        5
      ],
      "matrix": [
        1.0,
        0.0,
        0.0,
        0.0,
        0.0,
        1.0,
        0.0,
        0.0,
        0.0,
        0.0,
        1.0,
        0.0,
        0.0,
        5.824027061462402,
        0.0,
        1.0
      ],
      "name": "tree2"
    },
    {
      "mesh": 0,
      "name": "tree2_tree2_0"
    },
    {
      "children": [
        6
      ],
      "matrix": [
        1.0,
        0.0,
        0.0,
        0.0,
        0.0,
        1.0,
        0.0,
        0.0,
        0.0,
        0.0,
        1.0,
        0.0,
        2.2407169342041016,
        326.7692565917969,
        19.791593551635742,
        1.0
      ],
      "name": "leaves"
    },
    {
      "mesh": 1,
      "name": "leaves_branches_0"
    }
  ],
  "samplers": [
    {
      "magFilter": 9729,
      "minFilter": 9987,
      "wrapS": 10497,
      "wrapT": 10497
    }
  ],
  "scene": 0,
  "scenes": [
    {
      "name": "Sketchfab_Scene",
      "nodes": [
        0
      ]
    }
  ],
  "textures": [
    {
      "sampler": 0,
      "source": 0
    },
    {
      "sampler": 0,
      "source": 1
    },
    {
      "sampler": 0,
      "source": 2
    },
    {
      "sampler": 0,
      "source": 3
    },
    {
      "sampler": 0,
      "source": 4
    }
  ]
}
